<?xml version="1.0" encoding="UTF-8"?>
<svg width="608px" height="361px" viewBox="0 0 608 361" version="1.1" xmlns="http://www.w3.org/2000/svg" xmlns:xlink="http://www.w3.org/1999/xlink">
    <!-- Generator: Sketch 57.1 (83088) - https://sketch.com -->
    <title>3-partly-sunny</title>
    <desc>Created with Sketch.</desc>
    <g id="Page-1" stroke="none" stroke-width="1" fill="none" fill-rule="evenodd">
        <g id="Icons" transform="translate(-1956.000000, -213.000000)" fill-rule="nonzero">
            <g id="3-partly-sunny" transform="translate(1956.000000, 213.000000)">
                <path d="M255,134.987773 C217.526701,144.101429 189.71012,177.858791 189.71012,218.10384 C163.986621,218.10384 141.676272,232.671431 130.592453,254 C82.8915952,244.268469 47,202.098502 47,151.563458 C47,93.8159118 93.8564894,47 151.654088,47 C203.802744,47 247.043911,85.1181333 255,134.987773 L255,134.987773 Z" id="Path" fill="#FFEE77"></path>
                <g id="Group" fill="#252725">
                    <path d="M9.5,161.5 L38.4085,161.5 C40.4284375,185.54925 50.0495625,207.795875 65.029875,225.535938 L40.7823125,249.7835 C37.0725625,253.49325 37.0725625,259.507938 40.7823125,263.217688 C44.49325,266.928625 50.50675,266.927438 54.2176875,263.217688 L78.4426875,238.9915 C89.84625,248.675563 103.208,256.182938 117.952,260.794 C101.438625,309.829438 138.052812,361 190,361 L294.5,361 C299.746375,361 304,356.746375 304,351.5 C304,346.253625 299.746375,342 294.5,342 L190,342 C158.56925,342 133,316.429563 133,285 C133,253.570438 158.56925,228 190,228 C195.246375,228 199.5,223.747563 199.5,218.5 C199.5,176.593125 233.593125,142.5 275.5,142.5 C317.995875,142.5 351.5,177.253375 351.5,218.5 C351.5,223.747563 355.753625,228 361,228 C366.246375,228 370.5,223.747563 370.5,218.5 C370.5,181.087813 348.216563,147.309375 314.904812,132.061875 C377.642812,63.65 489.475625,95.2481875 509.996813,182.891625 C510.944437,186.941 514.4155,189.902625 518.563438,190.201875 C558.059688,193.048313 589,226.343438 589,266 C589,307.906875 554.906875,342 513,342 L351.5,342 C346.253625,342 342,346.253625 342,351.5 C342,356.746375 346.253625,361 351.5,361 L513,361 C565.383,361 608,318.383 608,266 C608,218.744625 572.846438,178.715188 526.777375,171.995125 C496.855937,68.7705 362.8335,41.98525 295.409625,125.59 C284.853937,123.3385 273.805437,122.861125 262.620375,124.384688 C258.39525,107.460438 250.288187,91.7284375 239.025937,78.410625 L263.218875,54.2165 C266.928625,50.50675 266.928625,44.4920625 263.218875,40.7823125 C259.507937,37.0725625 253.494437,37.0725625 249.7835,40.7823125 L225.60125,64.96575 C207.478812,49.630375 185.044562,40.37975 161.5,38.4096875 L161.5,9.5 C161.5,4.253625 157.246375,-1.42108547e-14 152,-1.42108547e-14 C146.753625,-1.42108547e-14 142.5,4.253625 142.5,9.5 L142.5,38.399 C118.193062,40.4141875 96.0295625,50.0875625 78.4284375,64.99425 L54.2176875,40.7823125 C50.5079375,37.0725625 44.4944375,37.071375 40.7823125,40.7823125 C37.0725625,44.4920625 37.0725625,50.50675 40.7823125,54.2165 L64.99425,78.4284375 C50.0875625,96.03075 40.4141875,118.193063 38.399,142.5 L9.5,142.5 C4.253625,142.5 -2.84217094e-14,146.752438 -2.84217094e-14,152 C-2.84217094e-14,157.247563 4.253625,161.5 9.5,161.5 Z M152,57 C196.057437,57 233.677437,87.160125 244.15,128.825938 C209.828875,140.860063 184.441312,172.064 180.919187,209.539125 C158.121562,212.265625 138.406687,225.134563 126.391562,243.479063 C85.8135,232.149125 57,194.70725 57,152 C57,99.617 99.617,57 152,57 Z" id="Shape"></path>
                    <path d="M316.27875,344.77875 C312.580875,348.476625 312.577313,354.519813 316.27875,358.22125 C319.975438,361.917938 326.017438,361.925063 329.72125,358.22125 C333.4215,354.519813 333.420313,348.480188 329.72125,344.77875 C326.023375,341.082062 319.980188,341.0785 316.27875,344.77875 Z" id="Path"></path>
                </g>
            </g>
        </g>
    </g>
</svg>