<?xml version="1.0" encoding="UTF-8"?>
<svg width="552px" height="345px" viewBox="0 0 552 345" version="1.1" xmlns="http://www.w3.org/2000/svg" xmlns:xlink="http://www.w3.org/1999/xlink">
    <!-- Generator: Sketch 57.1 (83088) - https://sketch.com -->
    <title>8-fog</title>
    <desc>Created with Sketch.</desc>
    <g id="Page-1" stroke="none" stroke-width="1" fill="none" fill-rule="evenodd">
        <g id="Icons" transform="translate(-2012.000000, -952.000000)" fill-rule="nonzero">
            <g id="8-fog" transform="translate(2012.000000, 952.000000)">
                <path d="M391.883651,234 L160.11272,234 C137.028465,156.485333 194.997106,78 275.998185,78 C356.946369,78 414.988416,156.413833 391.883651,234 Z" id="Path" fill="#FFEE77"></path>
                <g id="Group" fill="#252725">
                    <path d="M77.5817368,327.75 L8.6212705,327.75 C3.86076893,327.75 0.00107752412,331.611844 0.00107752412,336.375 C0.00107752412,341.138156 3.86076893,345 8.6212705,345 L77.5817368,345 C82.3422383,345 86.2019297,341.138156 86.2019297,336.375 C86.2019297,331.611844 82.3422383,327.75 77.5817368,327.75 Z" id="Path"></path>
                    <path d="M543.072157,327.75 L474.110614,327.75 C469.350112,327.75 465.490421,331.611844 465.490421,336.375 C465.490421,341.138156 469.350112,345 474.110614,345 L543.072157,345 C547.832659,345 551.69235,341.138156 551.69235,336.375 C551.69235,331.611844 547.832659,327.75 543.072157,327.75 Z" id="Path"></path>
                    <path d="M439.629842,327.75 L112.062509,327.75 C107.302007,327.75 103.442316,331.611844 103.442316,336.375 C103.442316,341.138156 107.302007,345 112.062509,345 L439.629842,345 C444.390343,345 448.250035,341.138156 448.250035,336.375 C448.250035,331.611844 444.390343,327.75 439.629842,327.75 Z" id="Path"></path>
                    <path d="M8.62019297,241.5 L543.073235,241.5 C547.833736,241.5 551.693428,237.638156 551.693428,232.875 C551.693428,228.111844 547.833736,224.25 543.073235,224.25 L402.533919,224.25 C403.687947,218.572594 404.469152,212.814328 404.852751,207 L474.110614,207 C478.871115,207 482.730807,203.138156 482.730807,198.375 C482.730807,193.611844 478.871115,189.75 474.110614,189.75 L404.854906,189.75 C402.92506,160.558688 391.278102,133.981828 373.125053,113.240859 L419.865894,66.4739531 C423.23208,63.1048125 423.23208,57.6451875 419.865894,54.2760469 C416.498631,50.9090625 411.042049,50.9090625 407.674786,54.2760469 L360.933945,101.042953 C340.203458,82.8787031 313.642489,71.2263281 284.467446,69.2954063 L284.467446,52.0238438 C310.570468,53.5418438 335.616438,61.9145625 357.37165,76.5134531 C358.845703,77.5031719 360.513711,77.9764688 362.165555,77.9764688 C370.64567,77.9764688 374.042026,66.93 366.974545,62.1873281 C342.369282,45.6758438 314.004537,36.2864531 284.467446,34.750125 L284.467446,8.625 C284.467446,3.86184375 280.607754,-2.84217094e-14 275.847253,-2.84217094e-14 C271.086751,-2.84217094e-14 267.22706,3.86184375 267.22706,8.625 L267.22706,34.750125 C237.927024,36.2745938 209.757311,45.5335313 185.28566,61.8089063 C181.320372,64.4449219 180.242847,69.7988906 182.879549,73.7663906 C185.513018,77.7317344 190.86077,78.8130938 194.830369,76.1738438 C216.463821,61.7862656 241.33631,53.5299844 267.228137,52.0238438 L267.228137,69.2954063 C238.053094,71.2263281 211.492125,82.8797813 190.761638,101.042953 L144.020797,54.2760469 C140.653534,50.9090625 135.196952,50.9090625 131.829689,54.2760469 C128.463503,57.6451875 128.463503,63.1048125 131.829689,66.4739531 L178.57053,113.240859 C160.416404,133.981828 148.770523,160.558688 146.840677,189.75 L77.5817368,189.75 C72.8212352,189.75 68.9615438,193.611844 68.9615438,198.375 C68.9615438,203.138156 72.8212352,207 77.5817368,207 L146.838522,207 C147.223198,212.814328 148.003326,218.572594 149.157354,224.25 L8.62019297,224.25 C3.8596914,224.25 0,228.111844 0,232.875 C0,237.638156 3.8596914,241.5 8.62019297,241.5 Z M275.846175,86.2510781 C348.148044,86.2510781 401.538286,153.993984 384.904547,224.251078 L166.787804,224.251078 C150.124971,153.871078 203.685462,86.2510781 275.846175,86.2510781 L275.846175,86.2510781 Z" id="Shape"></path>
                    <path d="M43.1009649,276 C38.3404633,276 34.4807719,279.861844 34.4807719,284.625 C34.4807719,289.388156 38.3404633,293.25 43.1009649,293.25 L508.591385,293.25 C513.351887,293.25 517.211578,289.388156 517.211578,284.625 C517.211578,279.861844 513.351887,276 508.591385,276 L43.1009649,276 Z" id="Path"></path>
                    <path d="M121.40572,180.964359 C126.090795,181.749234 130.544202,178.597875 131.336183,173.887547 C134.782105,153.365438 142.417441,134.171578 154.027763,116.843953 C156.67955,112.887234 155.622499,107.528953 151.669063,104.876766 C147.713472,102.2235 142.359254,103.282219 139.708545,107.236781 C126.726534,126.612844 118.189311,148.074 114.33393,171.027281 C113.545182,175.726828 116.710948,180.175172 121.40572,180.964359 Z" id="Path"></path>
                    <path d="M400.082551,104.951156 C396.125883,107.601188 395.066677,112.958391 397.714153,116.917266 C409.293228,134.225484 416.910246,153.385922 420.354013,173.868141 C421.150303,178.601109 425.632803,181.731984 430.285553,180.941719 C434.981403,180.152531 438.146091,175.704188 437.356266,171.005719 C433.506272,148.098797 424.988444,126.672141 412.043069,107.320875 C409.393437,103.366312 404.038142,102.303281 400.082551,104.951156 L400.082551,104.951156 Z" id="Path"></path>
                </g>
            </g>
        </g>
    </g>
</svg>