<?xml version="1.0" encoding="UTF-8"?>
<svg width="512px" height="512px" viewBox="0 0 512 512" version="1.1" xmlns="http://www.w3.org/2000/svg" xmlns:xlink="http://www.w3.org/1999/xlink">
    <!-- Generator: Sketch 57.1 (83088) - https://sketch.com -->
    <title>14-partly-sunny-showers</title>
    <desc>Created with Sketch.</desc>
    <g id="Page-1" stroke="none" stroke-width="1" fill="none" fill-rule="evenodd">
        <g id="Icons" transform="translate(-3058.000000, -920.000000)" fill-rule="nonzero">
            <g id="14-partly-sunny-showers" transform="translate(3058.000000, 920.000000)">
                <path d="M224,392 C224,409.674 238.327,424 256,424 C273.673,424 288,409.674 288,392 L256,328 L224,392 Z" id="Path" fill="#FFEE77"></path>
                <path d="M56,392 C56,409.674 70.327,424 88,424 C105.673,424 120,409.674 120,392 L88,328 L56,392 Z" id="Path" fill="#FFEE77"></path>
                <path d="M136,472 C136,489.674 150.327,504 168,504 C185.673,504 200,489.674 200,472 L168,408 L136,472 Z" id="Path" fill="#FFEE77"></path>
                <path d="M392,392 C392,409.674 406.327,424 424,424 C441.673,424 456,409.674 456,392 L424,328 L392,392 Z" id="Path" fill="#FFEE77"></path>
                <path d="M320,472 C320,489.674 334.327,504 352,504 C369.673,504 384,489.674 384,472 L352,408 L320,472 Z" id="Path" fill="#FFEE77"></path>
                <path d="M214.9,114.05 C183.39,121.72 160,150.13 160,184 C138.37,184 119.61,196.26 110.29,214.21 C70.18,206.02 40,170.53 40,128 C40,79.4 79.4,40 128,40 C171.85,40 208.21,72.08 214.9,114.05 L214.9,114.05 Z" id="Path" fill="#FFEE77"></path>
                <g id="Group" fill="#252725">
                    <path d="M443.602,144.838 C418.442,58.045 305.654,35.213 248.764,105.781 C239.634,103.826 230.422,103.482 221.154,104.745 C217.597,90.493 210.769,77.244 201.285,66.029 L221.657,45.656 C224.782,42.532 224.782,37.467 221.657,34.343 C218.533,31.219 213.468,31.219 210.344,34.343 L189.979,54.708 C174.719,41.794 155.827,34.003 136,32.345 L136,8 C136,3.582 132.419,-1.42108547e-14 128,-1.42108547e-14 C123.581,-1.42108547e-14 120,3.582 120,8 L120,32.336 C99.531,34.033 80.867,42.179 66.045,54.732 L45.657,34.343 C42.533,31.219 37.468,31.219 34.344,34.343 C31.219,37.467 31.219,42.532 34.344,45.656 L54.732,66.044 C42.179,80.867 34.033,99.531 32.336,120 L8,120 C3.582,120 0,123.581 0,128 C0,132.419 3.582,136 8,136 L32.344,136 C34.045,156.253 42.147,174.986 54.762,189.925 L34.344,210.344 C31.219,213.468 31.219,218.533 34.344,221.657 C37.468,224.782 42.533,224.781 45.657,221.657 L66.058,201.256 C75.661,209.411 86.913,215.733 99.329,219.616 C85.421,260.903 116.255,304 160,304 L296,304 C300.418,304 304,300.418 304,296 C304,291.582 300.418,288 296,288 L160,288 C133.533,288 112,266.467 112,240 C112,213.533 133.533,192 160,192 C164.419,192 168,188.419 168,184 C168,148.71 196.71,120 232,120 C267.29,120 296,148.71 296,184 C296,188.419 299.581,192 304,192 C308.418,192 312,188.419 312,184 C312,151.716 292.767,123.857 265.166,111.228 C317.997,53.589 412.192,80.207 429.47,154.015 C430.268,157.425 433.192,159.919 436.684,160.171 C469.946,162.567 496,190.605 496,224 C496,259.29 467.29,288 432,288 L360,288 C355.581,288 352,291.582 352,296 C352,300.418 355.581,304 360,304 L432,304 C476.112,304 512,268.112 512,224 C512,184.206 482.396,150.497 443.602,144.838 Z M152.353,176.454 C133.155,178.75 116.553,189.587 106.435,205.035 C72.263,195.494 48,163.964 48,128 C48,59.625 128.706,23.042 180.165,67.349 C192.732,78.17 201.603,92.586 205.599,108.486 C176.697,118.619 155.319,144.897 152.353,176.454 Z" id="Shape"></path>
                    <path d="M333.66,301.66 C336.775,298.545 336.777,293.457 333.66,290.34 C330.545,287.225 325.457,287.224 322.34,290.34 C319.226,293.454 319.223,298.543 322.34,301.66 C325.452,304.772 330.543,304.777 333.66,301.66 Z" id="Path"></path>
                    <path d="M263.155,324.422 C260.214,318.539 251.789,318.531 248.844,324.422 C213.945,394.222 216,389.304 216,392 C216,414.056 233.944,432 256,432 C278.056,432 296,414.056 296,392 C296,389.302 298.022,394.156 263.155,324.422 Z M256,416 C243.358,416 232.968,406.176 232.064,393.761 L256,345.889 L279.936,393.761 C279.032,406.176 268.642,416 256,416 Z" id="Shape"></path>
                    <path d="M95.155,324.422 C92.214,318.539 83.789,318.531 80.844,324.422 C45.945,394.222 48,389.304 48,392 C48,414.056 65.944,432 88,432 C110.056,432 128,414.056 128,392 C128,389.302 130.022,394.156 95.155,324.422 Z M88,416 C75.358,416 64.968,406.176 64.064,393.761 L88,345.889 L111.936,393.761 C111.032,406.176 100.642,416 88,416 Z" id="Shape"></path>
                    <path d="M175.155,404.422 C172.214,398.539 163.789,398.531 160.844,404.422 C125.945,474.222 128,469.304 128,472 C128,494.056 145.944,512 168,512 C190.056,512 208,494.056 208,472 C208,469.302 210.022,474.156 175.155,404.422 Z M168,496 C155.358,496 144.968,486.176 144.064,473.761 L168,425.889 L191.936,473.761 C191.032,486.176 180.642,496 168,496 Z" id="Shape"></path>
                    <path d="M431.155,324.422 C428.214,318.539 419.789,318.531 416.844,324.422 C381.945,394.222 384,389.304 384,392 C384,414.056 401.944,432 424,432 C446.056,432 464,414.056 464,392 C464,389.302 466.022,394.156 431.155,324.422 Z M424,416 C411.358,416 400.968,406.176 400.064,393.761 L424,345.889 L447.936,393.761 C447.032,406.176 436.642,416 424,416 Z" id="Shape"></path>
                    <path d="M359.155,404.422 C356.214,398.539 347.789,398.531 344.844,404.422 C309.945,474.222 312,469.304 312,472 C312,494.056 329.944,512 352,512 C374.056,512 392,494.056 392,472 C392,469.302 394.022,474.156 359.155,404.422 Z M352,496 C339.358,496 328.968,486.176 328.064,473.761 L352,425.889 L375.936,473.761 C375.032,486.176 364.642,496 352,496 Z" id="Shape"></path>
                </g>
            </g>
        </g>
    </g>
</svg>