<?xml version="1.0" encoding="UTF-8"?>
<svg width="512px" height="512px" viewBox="0 0 512 512" version="1.1" xmlns="http://www.w3.org/2000/svg" xmlns:xlink="http://www.w3.org/1999/xlink">
    <!-- Generator: Sketch 57.1 (83088) - https://sketch.com -->
    <title>2-mostly-sunny</title>
    <desc>Created with Sketch.</desc>
    <g id="Page-1" stroke="none" stroke-width="1" fill="none" fill-rule="evenodd">
        <g id="Icons" transform="translate(-1087.000000, -137.000000)" fill-rule="nonzero">
            <g id="2-mostly-sunny" transform="translate(1087.000000, 137.000000)">
                <circle id="Oval" fill="#FFEE77" cx="255.999" cy="256" r="152"></circle>
                <g id="Group" fill="#252725">
                    <path d="M256,80 C260.418,80 264,76.419 264,72 L264,8 C264,3.582 260.418,0 256,0 C251.582,0 248,3.582 248,8 L248,72 C248,76.419 251.582,80 256,80 Z" id="Path"></path>
                    <path d="M256,432 C251.582,432 248,435.582 248,440 L248,504 C248,508.418 251.582,512 256,512 C260.418,512 264,508.418 264,504 L264,440 C264,435.582 260.418,432 256,432 Z" id="Path"></path>
                    <path d="M504,248 L439.999,248 C435.581,248 431.999,251.581 431.999,256 C431.999,260.418 435.581,264 439.999,264 L504,264 C508.418,264 512,260.418 512,256 C512,251.581 508.418,248 504,248 Z" id="Path"></path>
                    <path d="M79.999,256 C79.999,251.581 76.417,248 71.999,248 L8,248 C3.582,248 -7.10542736e-15,251.581 -7.10542736e-15,256 C-7.10542736e-15,260.418 3.582,264 8,264 L71.999,264 C76.417,264 79.999,260.418 79.999,256 Z" id="Path"></path>
                    <path d="M122.342,133.657 C125.467,136.782 130.531,136.781 133.656,133.657 C136.78,130.533 136.78,125.468 133.656,122.344 L77.656,66.344 C74.531,63.22 69.467,63.22 66.342,66.344 C63.218,69.468 63.218,74.533 66.342,77.657 L122.342,133.657 Z" id="Path"></path>
                    <path d="M383.999,136 C386.047,136 388.094,135.219 389.656,133.657 L445.656,77.657 C448.78,74.533 448.78,69.468 445.656,66.344 C442.531,63.22 437.467,63.22 434.342,66.344 L378.342,122.344 C373.286,127.399 376.937,136 383.999,136 L383.999,136 Z" id="Path"></path>
                    <path d="M389.656,378.343 C386.531,375.219 381.467,375.219 378.342,378.343 C375.218,381.467 375.218,386.532 378.342,389.656 L434.342,445.656 C435.905,447.218 437.951,447.999 439.999,447.999 C447.06,447.999 450.713,439.399 445.656,434.342 L389.656,378.343 Z" id="Path"></path>
                    <path d="M122.342,378.343 L66.342,434.343 C63.218,437.467 63.218,442.532 66.342,445.656 C69.467,448.781 74.531,448.78 77.656,445.656 L133.656,389.656 C136.78,386.532 136.78,381.467 133.656,378.343 C130.531,375.219 125.467,375.219 122.342,378.343 L122.342,378.343 Z" id="Path"></path>
                    <path d="M255.999,96 C167.774,96 95.999,167.776 95.999,256 C95.999,344.224 167.774,416 255.999,416 C344.224,416 415.999,344.224 415.999,256 C415.999,167.776 344.224,96 255.999,96 Z M255.999,400 C176.597,400 111.999,335.402 111.999,256 C111.999,176.598 176.597,112 255.999,112 C335.401,112 399.999,176.598 399.999,256 C399.999,335.402 335.401,400 255.999,400 Z" id="Shape"></path>
                    <path d="M373.767,280.522 C369.515,279.34 365.101,281.829 363.916,286.085 C350.5,334.315 306.123,368 256,368 C194.243,368 144,317.757 144,256 C144,194.243 194.243,144 256,144 C306.314,144 350.736,177.847 364.024,226.309 C365.191,230.569 369.588,233.074 373.854,231.909 C378.115,230.74 380.622,226.339 379.454,222.078 C364.267,166.686 313.5,128 256,128 C185.421,128 128,185.42 128,256 C128,326.58 185.421,384 256,384 C313.281,384 363.996,345.5 379.33,290.374 C380.515,286.117 378.023,281.706 373.767,280.522 L373.767,280.522 Z" id="Path"></path>
                    <path d="M381.648,250.34 C378.562,247.232 373.46,247.219 370.338,250.34 C367.224,253.454 367.221,258.543 370.338,261.66 C373.466,264.788 378.567,264.763 381.648,261.66 C384.777,258.532 384.778,253.47 381.648,250.34 L381.648,250.34 Z" id="Path"></path>
                </g>
                <g id="035-smartphone" transform="translate(64.000000, 277.000000)">
                    <path d="M32,40 C18.745,40 8,50.745 8,64 C8,77.255 18.745,88 32,88 L160,88 C173.255,88 184,77.255 184,64 C184,50.745 173.255,40 160,40 C160,17.908 142.092,0 120,0 C97.908,0 80,17.908 80,40 C80,26.745 69.255,16 56,16 C42.745,16 32,26.745 32,40 Z" id="Path" fill="#FFFFFF"></path>
                    <g id="Group" fill="#252725">
                        <path d="M167.474,40.881 C164.023,17.777 144.049,0 120,0 C101.949,0 86.193,10.016 77.999,24.781 C59.973,7.696 30.33,16.871 24.814,40.813 C10.618,44.084 0,56.825 0,72 C0,89.645 14.355,104 32,104 L160,104 C177.645,104 192,89.645 192,72 C192,56.928 181.525,44.256 167.474,40.881 Z M160,88 L32,88 C23.178,88 16,80.822 16,72 C16,63.178 23.178,56 32,56 C36.418,56 40,52.418 40,48 C40,39.178 47.178,32 56,32 C64.822,32 72,39.178 72,48 C72,52.418 75.582,56 80,56 C84.418,56 88,52.418 88,48 C88,30.355 102.355,16 120,16 C137.645,16 152,30.355 152,48 C152,52.418 155.582,56 160,56 C168.822,56 176,63.178 176,72 C176,80.822 168.822,88 160,88 Z" id="Shape"></path>
                    </g>
                </g>
                <g id="035-smartphone" transform="translate(320.000000, 173.000000)">
                    <path d="M32,40 C18.745,40 8,50.745 8,64 C8,77.255 18.745,88 32,88 L160,88 C173.255,88 184,77.255 184,64 C184,50.745 173.255,40 160,40 C160,17.908 142.092,0 120,0 C97.908,0 80,17.908 80,40 C80,26.745 69.255,16 56,16 C42.745,16 32,26.745 32,40 Z" id="Path" fill="#FFFFFF"></path>
                    <g id="Group" fill="#252725">
                        <path d="M167.474,40.881 C164.023,17.777 144.049,0 120,0 C101.949,0 86.193,10.016 77.999,24.781 C59.973,7.696 30.33,16.871 24.814,40.813 C10.618,44.084 0,56.825 0,72 C0,89.645 14.355,104 32,104 L160,104 C177.645,104 192,89.645 192,72 C192,56.928 181.525,44.256 167.474,40.881 Z M160,88 L32,88 C23.178,88 16,80.822 16,72 C16,63.178 23.178,56 32,56 C36.418,56 40,52.418 40,48 C40,39.178 47.178,32 56,32 C64.822,32 72,39.178 72,48 C72,52.418 75.582,56 80,56 C84.418,56 88,52.418 88,48 C88,30.355 102.355,16 120,16 C137.645,16 152,30.355 152,48 C152,52.418 155.582,56 160,56 C168.822,56 176,63.178 176,72 C176,80.822 168.822,88 160,88 Z" id="Shape"></path>
                    </g>
                </g>
            </g>
        </g>
    </g>
</svg>