<?xml version="1.0" encoding="UTF-8"?>
<svg width="512px" height="448px" viewBox="0 0 512 448" version="1.1" xmlns="http://www.w3.org/2000/svg" xmlns:xlink="http://www.w3.org/1999/xlink">
    <!-- Generator: Sketch 57.1 (83088) - https://sketch.com -->
    <title>7-cloudy</title>
    <desc>Created with Sketch.</desc>
    <g id="Page-1" stroke="none" stroke-width="1" fill="none" fill-rule="evenodd">
        <g id="Icons" transform="translate(-1087.000000, -952.000000)" fill-rule="nonzero">
            <g id="7-cloudy" transform="translate(1087.000000, 952.000000)">
                <path d="M304,328 C304,288.235 271.765,256 232,256 C192.235,256 160,288.235 160,328 C129.07,328 104,353.07 104,384 C104,414.93 129.07,440 160,440 L432,440 C471.76,440 504,407.76 504,368 C504,330.01 474.57,298.88 437.26,296.19 C417.049,209.86 304.267,186.945 251.92,258.79" id="Path" fill="#FFEE77"></path>
                <path d="M504,160 C504,199.76 471.76,232 432,232 L391.44,232 C375.4,221.87 356.389,216 336.019,216 C304.9,141.317 203.738,129.16 155.919,194.79 C140.766,190.433 123.813,191.05 108.289,197.53 C92.998,160.792 119.985,120 160,120 C160,72.092 205.995,37.584 251.92,50.79 C304.33,-21.142 417.078,1.983 437.26,88.19 C474.57,90.88 504,122.01 504,160 Z" id="Path" fill="#FFEE77"></path>
                <g id="Group" fill="#252725">
                    <path d="M443.602,288.839 C438.254,270.39 428.098,253.492 414.348,240 L432,240 C476.112,240 512,204.112 512,160 C512,120.205 482.397,86.497 443.602,80.839 C418.406,-6.085 305.547,-28.648 248.766,41.76 C233.578,38.522 217.322,39.693 202.297,45.723 C181.211,16.969 147.949,-1.42108547e-14 112,-1.42108547e-14 C50.243,-1.42108547e-14 -3.55271368e-14,50.243 -3.55271368e-14,112 C-3.55271368e-14,158.707 28.926,200.041 71.684,216.502 C63.248,227.893 57.75,241.584 56.353,256.454 C24.654,260.245 -3.55271368e-14,287.297 -3.55271368e-14,320 C-3.55271368e-14,355.29 28.71,384 64,384 L96,384 C96,419.29 124.71,448 160,448 L432,448 C476.112,448 512,412.112 512,368 C512,328.205 482.397,294.497 443.602,288.839 Z M249.709,58.479 C252.936,59.404 256.406,58.218 258.386,55.502 C276.407,30.767 305.422,16 336,16 C382.327,16 419.742,48.463 429.471,90.014 C430.269,93.424 433.192,95.918 436.685,96.17 C469.945,98.567 496,126.605 496,160 C496,195.29 467.29,224 432,224 L393.66,224 C377.839,214.515 359.779,209.014 341.263,208.135 C305.817,133.038 204.367,121.776 152.766,185.76 C140.176,183.076 126.534,183.37 113.339,187.274 C106.033,156.937 129.148,128 160,128 C164.418,128 168,124.418 168,120 C168,77.369 208.996,46.771 249.709,58.479 Z M16,112 C16,59.065 59.065,16 112,16 C142.003,16 169.817,29.795 187.947,53.274 C168.286,66.298 154.674,87.753 152.352,112.454 C113.784,117.067 87.64,155.287 98.418,193.412 C93.057,196.279 88.061,199.734 83.513,203.699 C43.553,191.326 16,154.215 16,112 Z M64,368 C37.532,368 16,346.468 16,320 C16,293.532 37.532,272 64,272 C68.418,272 72,268.418 72,264 C72,221.369 112.996,190.771 153.709,202.479 C156.936,203.403 160.405,202.218 162.386,199.502 C203.367,143.253 289.206,147.859 323.557,208.702 C294.359,211.996 267.314,226.758 248.761,249.766 C201.742,239.695 156.794,273.194 152.353,320.454 C126.01,323.604 104.547,342.826 98.042,368 L64,368 Z M432,432 L160,432 C133.532,432 112,410.468 112,384 C112,357.532 133.532,336 160,336 C164.418,336 168,332.418 168,328 C168,292.71 196.71,264 232,264 C267.29,264 296,292.71 296,328 C296,332.418 299.582,336 304,336 C308.418,336 312,332.418 312,328 C312,295.716 292.776,267.836 265.175,255.206 C317.352,198.305 411.943,223.157 429.471,298.014 C430.269,301.424 433.192,303.918 436.685,304.17 C469.945,306.567 496,334.604 496,368 C496,403.29 467.29,432 432,432 Z" id="Shape"></path>
                    <path d="M112,48.002 C116.418,48.002 120,44.42 120,40.002 C120,35.584 116.418,32.002 112,32.002 C67.888,32.002 32,67.89 32,112.002 C32,116.42 35.582,120.002 40,120.002 C44.418,120.002 48,116.42 48,112.002 C48,76.712 76.71,48.002 112,48.002 Z" id="Path"></path>
                </g>
            </g>
        </g>
    </g>
</svg>